<svg width="39" height="13" viewBox="0 0 39 13" fill="none" xmlns="http://www.w3.org/2000/svg">
<path d="M2.81104 0C2.70666 0 2.62208 0.0846043 2.62208 0.188961V2.83449H2.12259V0.188961C2.12259 0.0846043 2.03801 0 1.93363 0C1.82925 0 1.74467 0.0846043 1.74467 0.188961V2.83449H1.25632V0.188961C1.25632 0.0846043 1.17174 0 1.06735 0C0.962972 0 0.878393 0.0846043 0.878393 0.188961V2.83449H0.377923V0.188961C0.377923 0.0846043 0.293344 0 0.188961 0C0.0845791 0 0 0.0846043 0 0.188961V4.07925C0 4.48115 0.216575 4.85505 0.565171 5.05502L0.878393 5.23471V6.39362C0.752192 6.54116 0.681168 6.7311 0.681168 6.92651V7.11999C0.681168 7.23722 0.721782 7.34513 0.789632 7.43041C0.721757 7.5157 0.681168 7.62361 0.681168 7.74084V10.6968C0.681168 10.8012 0.765747 10.8858 0.870129 10.8858C0.974511 10.8858 1.05909 10.8012 1.05909 10.6968V7.74081C1.05909 7.67384 1.11359 7.61935 1.18055 7.61935H1.81945C1.88641 7.61935 1.94088 7.67384 1.94088 7.74081V12.0748C1.94088 12.3179 1.74308 12.5157 1.49997 12.5157C1.25687 12.5157 1.05907 12.3179 1.05907 12.0748V11.5767C1.05907 11.4723 0.974486 11.3877 0.870104 11.3877C0.765722 11.3877 0.681143 11.4723 0.681143 11.5767V12.0748C0.681143 12.5263 1.04846 12.8936 1.49997 12.8936C1.95149 12.8936 2.31881 12.5263 2.31881 12.0748V7.74081C2.31881 7.62358 2.27819 7.51567 2.21034 7.43039C2.27822 7.3451 2.31881 7.23719 2.31881 7.11996V6.92649C2.31881 6.73163 2.24811 6.54209 2.12256 6.39473V5.23463L2.43528 5.05504C2.78358 4.855 2.99995 4.4812 2.99995 4.07955L3 0.188961C3 0.0846043 2.9154 0 2.81104 0V0ZM2.62205 4.07955C2.62205 4.34626 2.47837 4.59448 2.24708 4.72731L1.8395 4.96139C1.78082 4.9951 1.74464 5.05759 1.74464 5.12526V6.46963C1.74464 6.52146 1.76593 6.57099 1.8035 6.60667C1.89211 6.69079 1.94088 6.80437 1.94088 6.92649V7.11996C1.94088 7.18693 1.88641 7.24142 1.81945 7.24142H1.18055C1.11359 7.24142 1.05909 7.18693 1.05909 7.11996V6.92649C1.05909 6.80404 1.10812 6.69024 1.19716 6.60604C1.23492 6.57034 1.25632 6.52068 1.25632 6.46872V5.12526C1.25632 5.05756 1.22009 4.99505 1.16138 4.96137L0.753225 4.72721C0.521735 4.59443 0.377923 4.34613 0.377923 4.07927V3.21244H2.62203V4.07955H2.62205Z" fill="#B4E6AC"/>
<path d="M11.811 0C11.7067 0 11.6221 0.0846043 11.6221 0.188961V2.83449H11.1226V0.188961C11.1226 0.0846043 11.038 0 10.9336 0C10.8292 0 10.7447 0.0846043 10.7447 0.188961V2.83449H10.2563V0.188961C10.2563 0.0846043 10.1717 0 10.0674 0C9.96297 0 9.87839 0.0846043 9.87839 0.188961V2.83449H9.37792V0.188961C9.37792 0.0846043 9.29334 0 9.18896 0C9.08458 0 9 0.0846043 9 0.188961V4.07925C9 4.48115 9.21657 4.85505 9.56517 5.05502L9.87839 5.23471V6.39362C9.75219 6.54116 9.68117 6.7311 9.68117 6.92651V7.11999C9.68117 7.23722 9.72178 7.34513 9.78963 7.43041C9.72176 7.5157 9.68117 7.62361 9.68117 7.74084V10.6968C9.68117 10.8012 9.76575 10.8858 9.87013 10.8858C9.97451 10.8858 10.0591 10.8012 10.0591 10.6968V7.74081C10.0591 7.67384 10.1136 7.61935 10.1806 7.61935H10.8194C10.8864 7.61935 10.9409 7.67384 10.9409 7.74081V12.0748C10.9409 12.3179 10.7431 12.5157 10.5 12.5157C10.2569 12.5157 10.0591 12.3179 10.0591 12.0748V11.5767C10.0591 11.4723 9.97449 11.3877 9.8701 11.3877C9.76572 11.3877 9.68114 11.4723 9.68114 11.5767V12.0748C9.68114 12.5263 10.0485 12.8936 10.5 12.8936C10.9515 12.8936 11.3188 12.5263 11.3188 12.0748V7.74081C11.3188 7.62358 11.2782 7.51567 11.2103 7.43039C11.2782 7.3451 11.3188 7.23719 11.3188 7.11996V6.92649C11.3188 6.73163 11.2481 6.54209 11.1226 6.39473V5.23463L11.4353 5.05504C11.7836 4.855 11.9999 4.4812 11.9999 4.07955L12 0.188961C12 0.0846043 11.9154 0 11.811 0V0ZM11.6221 4.07955C11.6221 4.34626 11.4784 4.59448 11.2471 4.72731L10.8395 4.96139C10.7808 4.9951 10.7446 5.05759 10.7446 5.12526V6.46963C10.7446 6.52146 10.7659 6.57099 10.8035 6.60667C10.8921 6.69079 10.9409 6.80437 10.9409 6.92649V7.11996C10.9409 7.18693 10.8864 7.24142 10.8194 7.24142H10.1806C10.1136 7.24142 10.0591 7.18693 10.0591 7.11996V6.92649C10.0591 6.80404 10.1081 6.69024 10.1972 6.60604C10.2349 6.57034 10.2563 6.52068 10.2563 6.46872V5.12526C10.2563 5.05756 10.2201 4.99505 10.1614 4.96137L9.75322 4.72721C9.52173 4.59443 9.37792 4.34613 9.37792 4.07927V3.21244H11.622V4.07955H11.6221Z" fill="#B4E6AC"/>
<path d="M20.811 0C20.7067 0 20.6221 0.0846043 20.6221 0.188961V2.83449H20.1226V0.188961C20.1226 0.0846043 20.038 0 19.9336 0C19.8292 0 19.7447 0.0846043 19.7447 0.188961V2.83449H19.2563V0.188961C19.2563 0.0846043 19.1717 0 19.0674 0C18.963 0 18.8784 0.0846043 18.8784 0.188961V2.83449H18.3779V0.188961C18.3779 0.0846043 18.2933 0 18.189 0C18.0846 0 18 0.0846043 18 0.188961V4.07925C18 4.48115 18.2166 4.85505 18.5652 5.05502L18.8784 5.23471V6.39362C18.7522 6.54116 18.6812 6.7311 18.6812 6.92651V7.11999C18.6812 7.23722 18.7218 7.34513 18.7896 7.43041C18.7218 7.5157 18.6812 7.62361 18.6812 7.74084V10.6968C18.6812 10.8012 18.7657 10.8858 18.8701 10.8858C18.9745 10.8858 19.0591 10.8012 19.0591 10.6968V7.74081C19.0591 7.67384 19.1136 7.61935 19.1806 7.61935H19.8194C19.8864 7.61935 19.9409 7.67384 19.9409 7.74081V12.0748C19.9409 12.3179 19.7431 12.5157 19.5 12.5157C19.2569 12.5157 19.0591 12.3179 19.0591 12.0748V11.5767C19.0591 11.4723 18.9745 11.3877 18.8701 11.3877C18.7657 11.3877 18.6811 11.4723 18.6811 11.5767V12.0748C18.6811 12.5263 19.0485 12.8936 19.5 12.8936C19.9515 12.8936 20.3188 12.5263 20.3188 12.0748V7.74081C20.3188 7.62358 20.2782 7.51567 20.2103 7.43039C20.2782 7.3451 20.3188 7.23719 20.3188 7.11996V6.92649C20.3188 6.73163 20.2481 6.54209 20.1226 6.39473V5.23463L20.4353 5.05504C20.7836 4.855 20.9999 4.4812 20.9999 4.07955L21 0.188961C21 0.0846043 20.9154 0 20.811 0V0ZM20.6221 4.07955C20.6221 4.34626 20.4784 4.59448 20.2471 4.72731L19.8395 4.96139C19.7808 4.9951 19.7446 5.05759 19.7446 5.12526V6.46963C19.7446 6.52146 19.7659 6.57099 19.8035 6.60667C19.8921 6.69079 19.9409 6.80437 19.9409 6.92649V7.11996C19.9409 7.18693 19.8864 7.24142 19.8194 7.24142H19.1806C19.1136 7.24142 19.0591 7.18693 19.0591 7.11996V6.92649C19.0591 6.80404 19.1081 6.69024 19.1972 6.60604C19.2349 6.57034 19.2563 6.52068 19.2563 6.46872V5.12526C19.2563 5.05756 19.2201 4.99505 19.1614 4.96137L18.7532 4.72721C18.5217 4.59443 18.3779 4.34613 18.3779 4.07927V3.21244H20.622V4.07955H20.6221Z" fill="#B4E6AC"/>
<path d="M29.811 0C29.7067 0 29.6221 0.0846043 29.6221 0.188961V2.83449H29.1226V0.188961C29.1226 0.0846043 29.038 0 28.9336 0C28.8292 0 28.7447 0.0846043 28.7447 0.188961V2.83449H28.2563V0.188961C28.2563 0.0846043 28.1717 0 28.0674 0C27.963 0 27.8784 0.0846043 27.8784 0.188961V2.83449H27.3779V0.188961C27.3779 0.0846043 27.2933 0 27.189 0C27.0846 0 27 0.0846043 27 0.188961V4.07925C27 4.48115 27.2166 4.85505 27.5652 5.05502L27.8784 5.23471V6.39362C27.7522 6.54116 27.6812 6.7311 27.6812 6.92651V7.11999C27.6812 7.23722 27.7218 7.34513 27.7896 7.43041C27.7218 7.5157 27.6812 7.62361 27.6812 7.74084V10.6968C27.6812 10.8012 27.7657 10.8858 27.8701 10.8858C27.9745 10.8858 28.0591 10.8012 28.0591 10.6968V7.74081C28.0591 7.67384 28.1136 7.61935 28.1806 7.61935H28.8194C28.8864 7.61935 28.9409 7.67384 28.9409 7.74081V12.0748C28.9409 12.3179 28.7431 12.5157 28.5 12.5157C28.2569 12.5157 28.0591 12.3179 28.0591 12.0748V11.5767C28.0591 11.4723 27.9745 11.3877 27.8701 11.3877C27.7657 11.3877 27.6811 11.4723 27.6811 11.5767V12.0748C27.6811 12.5263 28.0485 12.8936 28.5 12.8936C28.9515 12.8936 29.3188 12.5263 29.3188 12.0748V7.74081C29.3188 7.62358 29.2782 7.51567 29.2103 7.43039C29.2782 7.3451 29.3188 7.23719 29.3188 7.11996V6.92649C29.3188 6.73163 29.2481 6.54209 29.1226 6.39473V5.23463L29.4353 5.05504C29.7836 4.855 29.9999 4.4812 29.9999 4.07955L30 0.188961C30 0.0846043 29.9154 0 29.811 0V0ZM29.6221 4.07955C29.6221 4.34626 29.4784 4.59448 29.2471 4.72731L28.8395 4.96139C28.7808 4.9951 28.7446 5.05759 28.7446 5.12526V6.46963C28.7446 6.52146 28.7659 6.57099 28.8035 6.60667C28.8921 6.69079 28.9409 6.80437 28.9409 6.92649V7.11996C28.9409 7.18693 28.8864 7.24142 28.8194 7.24142H28.1806C28.1136 7.24142 28.0591 7.18693 28.0591 7.11996V6.92649C28.0591 6.80404 28.1081 6.69024 28.1972 6.60604C28.2349 6.57034 28.2563 6.52068 28.2563 6.46872V5.12526C28.2563 5.05756 28.2201 4.99505 28.1614 4.96137L27.7532 4.72721C27.5217 4.59443 27.3779 4.34613 27.3779 4.07927V3.21244H29.622V4.07955H29.6221Z" fill="#B4E6AC"/>
<path d="M38.811 0C38.7067 0 38.6221 0.0846043 38.6221 0.188961V2.83449H38.1226V0.188961C38.1226 0.0846043 38.038 0 37.9336 0C37.8292 0 37.7447 0.0846043 37.7447 0.188961V2.83449H37.2563V0.188961C37.2563 0.0846043 37.1717 0 37.0674 0C36.963 0 36.8784 0.0846043 36.8784 0.188961V2.83449H36.3779V0.188961C36.3779 0.0846043 36.2933 0 36.189 0C36.0846 0 36 0.0846043 36 0.188961V4.07925C36 4.48115 36.2166 4.85505 36.5652 5.05502L36.8784 5.23471V6.39362C36.7522 6.54116 36.6812 6.7311 36.6812 6.92651V7.11999C36.6812 7.23722 36.7218 7.34513 36.7896 7.43041C36.7218 7.5157 36.6812 7.62361 36.6812 7.74084V10.6968C36.6812 10.8012 36.7657 10.8858 36.8701 10.8858C36.9745 10.8858 37.0591 10.8012 37.0591 10.6968V7.74081C37.0591 7.67384 37.1136 7.61935 37.1806 7.61935H37.8194C37.8864 7.61935 37.9409 7.67384 37.9409 7.74081V12.0748C37.9409 12.3179 37.7431 12.5157 37.5 12.5157C37.2569 12.5157 37.0591 12.3179 37.0591 12.0748V11.5767C37.0591 11.4723 36.9745 11.3877 36.8701 11.3877C36.7657 11.3877 36.6811 11.4723 36.6811 11.5767V12.0748C36.6811 12.5263 37.0485 12.8936 37.5 12.8936C37.9515 12.8936 38.3188 12.5263 38.3188 12.0748V7.74081C38.3188 7.62358 38.2782 7.51567 38.2103 7.43039C38.2782 7.3451 38.3188 7.23719 38.3188 7.11996V6.92649C38.3188 6.73163 38.2481 6.54209 38.1226 6.39473V5.23463L38.4353 5.05504C38.7836 4.855 38.9999 4.4812 38.9999 4.07955L39 0.188961C39 0.0846043 38.9154 0 38.811 0V0ZM38.6221 4.07955C38.6221 4.34626 38.4784 4.59448 38.2471 4.72731L37.8395 4.96139C37.7808 4.9951 37.7446 5.05759 37.7446 5.12526V6.46963C37.7446 6.52146 37.7659 6.57099 37.8035 6.60667C37.8921 6.69079 37.9409 6.80437 37.9409 6.92649V7.11996C37.9409 7.18693 37.8864 7.24142 37.8194 7.24142H37.1806C37.1136 7.24142 37.0591 7.18693 37.0591 7.11996V6.92649C37.0591 6.80404 37.1081 6.69024 37.1972 6.60604C37.2349 6.57034 37.2563 6.52068 37.2563 6.46872V5.12526C37.2563 5.05756 37.2201 4.99505 37.1614 4.96137L36.7532 4.72721C36.5217 4.59443 36.3779 4.34613 36.3779 4.07927V3.21244H38.622V4.07955H38.6221Z" fill="#9C9C9C"/>
</svg>
