<svg width="25" height="23" viewBox="0 0 25 23" fill="none" xmlns="http://www.w3.org/2000/svg">
<path d="M11.4585 3.83331H4.16683C3.61429 3.83331 3.08439 4.03525 2.69369 4.39469C2.30299 4.75414 2.0835 5.24165 2.0835 5.74998V19.1666C2.0835 19.675 2.30299 20.1625 2.69369 20.5219C3.08439 20.8814 3.61429 21.0833 4.16683 21.0833H18.7502C19.3027 21.0833 19.8326 20.8814 20.2233 20.5219C20.614 20.1625 20.8335 19.675 20.8335 19.1666V12.4583" stroke="white" stroke-linecap="round" stroke-linejoin="round"/>
<path d="M19.271 2.39585C19.6854 2.0146 20.2474 1.80042 20.8335 1.80042C21.4195 1.80042 21.9816 2.0146 22.396 2.39585C22.8104 2.7771 23.0432 3.29418 23.0432 3.83335C23.0432 4.37251 22.8104 4.8896 22.396 5.27085L12.5002 14.375L8.3335 15.3333L9.37516 11.5L19.271 2.39585Z" stroke="white" stroke-linecap="round" stroke-linejoin="round"/>
</svg>
