<svg width="9" height="9" viewBox="0 0 9 9" fill="none" xmlns="http://www.w3.org/2000/svg">
<g clip-path="url(#clip0)">
<path d="M8.84999 5.27218V4.86823C8.84978 4.66121 8.68201 4.49344 8.47499 4.49323C8.43359 4.49317 8.40004 4.45963 8.39998 4.41822V4.26822C8.39977 4.0612 8.232 3.89343 8.02498 3.89322H7.82546C7.7908 3.89325 7.76081 3.86913 7.75339 3.83528L7.6819 3.55365C7.66346 3.47578 7.61426 3.40868 7.54552 3.36769C7.4773 3.32678 7.39568 3.31453 7.31846 3.33362C7.23964 3.35359 7.15607 3.34025 7.08737 3.29674C7.01868 3.25322 6.97093 3.18336 6.95531 3.10357L6.94856 3.07119L8.8157 1.70547C8.9121 1.63527 8.97653 1.52953 8.99472 1.41168C9.01291 1.29384 8.9834 1.17358 8.91266 1.07757C8.84244 0.981115 8.73667 0.916654 8.61877 0.89846C8.50087 0.880249 8.38056 0.909816 8.28453 0.980605L6.31332 2.42163C6.24983 2.40391 6.18433 2.39434 6.11841 2.39318H5.8814C5.84699 2.39281 5.81275 2.38853 5.77932 2.3804L7.13635 0.744982C7.23939 0.621615 7.2687 0.452598 7.21318 0.301756C7.15767 0.150897 7.0258 0.0412063 6.86734 0.0140825C6.70891 -0.0130412 6.54805 0.0465326 6.44551 0.170321L4.67644 2.30227C4.55449 2.3338 4.42489 2.31206 4.31993 2.24245C4.17311 2.14524 4.00096 2.09333 3.82488 2.09317H3.76035C3.61016 2.09271 3.46979 2.16783 3.38687 2.29306C3.35231 2.34423 3.2988 2.37953 3.23816 2.39114C3.17751 2.40276 3.11474 2.38974 3.06373 2.35495C2.9253 2.27043 2.74738 2.28935 2.62983 2.40109L2.49478 2.53615C2.44971 2.58187 2.41198 2.63431 2.38293 2.69158C2.33582 2.78403 2.2411 2.84251 2.13734 2.8432C1.86822 2.84355 1.65016 3.06161 1.64983 3.3307C1.6499 3.34262 1.64304 3.35348 1.63225 3.35853L1.32791 3.51065C1.15724 3.59725 1.04947 3.77214 1.04885 3.96351L0.867565 4.08488C0.700217 4.19611 0.599685 4.38376 0.59979 4.5847V4.64322C0.434165 4.64338 0.299953 4.77761 0.299777 4.94324V5.24325H0.26418C0.164809 5.24327 0.0738571 5.29905 0.0287681 5.38759C-0.0163209 5.47613 -0.00791837 5.5825 0.0505304 5.66287L0.0988011 5.78094C0.532095 6.83376 1.28441 7.72432 2.24998 8.32748V8.56026C2.25024 8.79931 2.44394 8.99306 2.68299 8.99336H6.31699C6.55606 8.99308 6.74979 8.79934 6.75009 8.56026V8.32741C7.71546 7.72434 8.46764 6.83399 8.90097 5.78145L8.94945 5.66287C9.0044 5.58732 9.01537 5.48838 8.97832 5.40264C8.95265 5.34512 8.90709 5.2988 8.84999 5.27218ZM8.46239 1.22215C8.49375 1.19867 8.53325 1.18881 8.57195 1.19484C8.61117 1.2006 8.64642 1.22187 8.66981 1.25386C8.68906 1.27969 8.69963 1.31094 8.7 1.34315C8.69966 1.39078 8.67679 1.43545 8.63833 1.46356L4.84143 4.24078L4.69574 4.28931C4.66596 4.29928 4.63374 4.29928 4.60396 4.28931L4.38423 4.21606C4.3798 4.2146 4.37523 4.21455 4.37078 4.21323L8.46239 1.22215ZM5.88141 2.69318H5.94185L4.86903 3.47747L5.57474 2.627C5.67114 2.67047 5.77566 2.69304 5.88141 2.69318ZM6.67677 0.36147C6.70186 0.330884 6.73816 0.311617 6.77755 0.307996C6.83772 0.302793 6.89515 0.334223 6.92321 0.387697C6.95126 0.441171 6.94449 0.506282 6.90602 0.552848L3.87816 4.20181L3.69012 4.33927C3.68852 4.33781 3.68643 4.33716 3.68488 4.33562C3.62752 4.27812 3.55549 4.23744 3.47661 4.218L6.67677 0.36147ZM0.59979 4.94324C0.765416 4.94308 0.899628 4.80885 0.899804 4.64322V4.5847C0.899822 4.484 0.950272 4.39 1.03421 4.33435L1.21645 4.21232C1.29968 4.15626 1.34966 4.06255 1.34982 3.96219C1.35076 3.88462 1.39446 3.8139 1.46341 3.77836L1.76511 3.62748C1.87802 3.57163 1.94958 3.45667 1.94982 3.33068C1.95012 3.22725 2.0339 3.14349 2.13734 3.14317C2.35359 3.14203 2.55122 3.02062 2.64996 2.82822C2.6648 2.79884 2.68398 2.77188 2.70686 2.74824L2.84192 2.61318C2.8586 2.5997 2.88165 2.59724 2.90081 2.60689C3.01788 2.68511 3.16127 2.71352 3.29931 2.68583C3.43736 2.65815 3.5587 2.57663 3.63654 2.45931C3.66405 2.41785 3.71056 2.39299 3.76033 2.39318H3.82486C3.94186 2.39331 4.05626 2.42776 4.15388 2.49229C4.2365 2.54708 4.32924 2.58483 4.42665 2.6033L3.02976 4.2867C3.0048 4.28882 2.97974 4.28432 2.95706 4.27367C2.78574 4.1879 2.57877 4.22153 2.4434 4.3571L2.29375 4.50674C2.2356 4.56539 2.23581 4.66001 2.29421 4.71841C2.3526 4.7768 2.44721 4.77701 2.50587 4.71886L2.65552 4.56922C2.6998 4.52495 2.76747 4.51409 2.82339 4.54227C2.92888 4.59544 3.05128 4.60415 3.16324 4.56644L3.32429 4.51275C3.37641 4.49511 3.43402 4.50869 3.47276 4.54777C3.62297 4.69735 3.85768 4.72062 4.03433 4.60344L4.16309 4.51768C4.20034 4.49289 4.2469 4.48665 4.28936 4.50077L4.50909 4.57402C4.60046 4.60434 4.69918 4.60434 4.79056 4.57402L5.01043 4.50077C5.0529 4.48686 5.0994 4.4931 5.1367 4.51768L5.46666 4.73764C5.53557 4.78292 5.62811 4.76408 5.67385 4.69548C5.71958 4.62688 5.70137 4.53422 5.63308 4.48802L5.30796 4.27124L6.68961 3.26065C6.77852 3.49074 6.99969 3.64255 7.24635 3.64277C7.29489 3.64256 7.34325 3.63683 7.3905 3.62571L7.46199 3.90712C7.50195 4.07535 7.65251 4.1939 7.82543 4.19328H8.02494C8.06634 4.19334 8.0999 4.22687 8.09995 4.26829V4.41829C8.10016 4.62531 8.26793 4.79308 8.47496 4.79329C8.51635 4.79334 8.54991 4.8269 8.54996 4.8683V5.2433H0.59979V4.94324ZM8.62323 5.66784C8.20776 6.67471 7.48372 7.52389 6.5552 8.09332H6.15007C6.06722 8.09332 6.00007 8.16047 6.00007 8.24331C6.00007 8.32616 6.06724 8.39331 6.15007 8.39331H6.45008V8.56024C6.45001 8.63372 6.39045 8.69326 6.31699 8.69333H2.68299C2.60955 8.69322 2.55005 8.63368 2.54997 8.56024V8.39331H4.35002C4.43287 8.39331 4.50002 8.32616 4.50002 8.24331C4.50002 8.16047 4.43287 8.09332 4.35002 8.09332H2.44463C1.51567 7.52421 0.791485 6.67473 0.376543 5.6674L0.325705 5.54325H8.67421L8.62323 5.66784Z" fill="#B4E6AC"/>
<path d="M6.60045 7.64249C6.62684 7.64249 6.65273 7.63553 6.67553 7.62228C7.28844 7.2464 7.7791 6.70074 8.08797 6.05149C8.10896 6.00219 8.10205 5.94544 8.06985 5.90262C8.03764 5.8598 7.98505 5.8374 7.93185 5.84387C7.87866 5.85034 7.83298 5.88471 7.81199 5.934C7.52938 6.52603 7.08089 7.02322 6.52105 7.36519L6.52047 7.36556C6.46379 7.4011 6.43753 7.46991 6.4561 7.53417C6.47466 7.59844 6.53355 7.64263 6.60045 7.64249Z" fill="#B4E6AC"/>
</g>
<defs>
<clipPath id="clip0">
<rect width="9" height="9" fill="white"/>
</clipPath>
</defs>
</svg>
