<svg width="16" height="16" viewBox="0 0 16 16" fill="none" xmlns="http://www.w3.org/2000/svg">
<path d="M12.5 5C13.7426 5 14.75 3.99264 14.75 2.75C14.75 1.50736 13.7426 0.5 12.5 0.5C11.2574 0.5 10.25 1.50736 10.25 2.75C10.25 3.99264 11.2574 5 12.5 5Z" stroke="white" stroke-linecap="round" stroke-linejoin="round"/>
<path d="M3.5 10.25C4.74264 10.25 5.75 9.24264 5.75 8C5.75 6.75736 4.74264 5.75 3.5 5.75C2.25736 5.75 1.25 6.75736 1.25 8C1.25 9.24264 2.25736 10.25 3.5 10.25Z" stroke="white" stroke-linecap="round" stroke-linejoin="round"/>
<path d="M12.5 15.5C13.7426 15.5 14.75 14.4926 14.75 13.25C14.75 12.0074 13.7426 11 12.5 11C11.2574 11 10.25 12.0074 10.25 13.25C10.25 14.4926 11.2574 15.5 12.5 15.5Z" stroke="white" stroke-linecap="round" stroke-linejoin="round"/>
<path d="M5.44238 9.13251L10.5649 12.1175" stroke="white" stroke-linecap="round" stroke-linejoin="round"/>
<path d="M10.5574 3.88251L5.44238 6.86751" stroke="white" stroke-linecap="round" stroke-linejoin="round"/>
</svg>
