<svg xmlns="http://www.w3.org/2000/svg" width="512" height="512" viewBox="0 0 512 512" version="1.1">
	<path d="M 281.001 57.123 C 277.038 58.704, 274.062 62.056, 272.947 66.196 C 272.101 69.340, 272.257 70.793, 273.823 74.334 C 279.527 87.227, 301.981 83.099, 301.996 69.154 C 302.007 59.980, 290.448 53.356, 281.001 57.123 M 144.124 70.578 C 128.851 74.685, 114.546 86.297, 107.712 100.135 C 102.476 110.735, 100.681 119.946, 101.307 133 C 101.931 145.980, 104.997 155.585, 111.604 165.255 C 122.699 181.493, 139.435 189.951, 160.540 189.985 C 177.738 190.013, 190.227 184.935, 202.103 173.086 C 210.110 165.097, 215.499 155.771, 217.891 145.760 C 226.064 111.561, 207.234 77.926, 175.760 70.506 C 167.864 68.644, 151.172 68.682, 144.124 70.578 M 150 91.935 C 132.972 97.134, 123.080 115.411, 126.032 136.222 C 127.953 149.770, 134.493 159.668, 144.839 164.683 C 149.772 167.075, 151.724 167.433, 160.018 167.464 C 168.790 167.497, 170.057 167.243, 176.206 164.218 C 183.937 160.414, 187.124 157.014, 191.410 148 C 194.337 141.844, 194.499 140.866, 194.477 129.500 C 194.458 119.231, 194.111 116.639, 192.074 111.531 C 188.871 103.503, 181.406 96.044, 173.681 93.154 C 167.736 90.929, 155.378 90.293, 150 91.935 M 275 142.500 L 275 189 287 189 L 299 189 299 142.500 L 299 96 287 96 L 275 96 275 142.500 M 387.500 309.826 C 380.378 313.210, 377.963 321.146, 382.026 327.810 C 387.052 336.055, 402.605 336.018, 407.489 327.750 C 410.961 321.872, 409.231 314.163, 403.613 310.482 C 399.738 307.943, 392.116 307.633, 387.500 309.826 M 233.667 316.667 C 233.300 317.033, 233 345.158, 233 379.167 L 233 441 244.931 441 L 256.863 441 257.181 412.250 C 257.477 385.606, 257.653 383.170, 259.583 379 C 266.495 364.069, 287.929 361.875, 296.749 375.195 L 299.500 379.350 299.791 410.175 L 300.082 441 312.090 441 L 324.099 441 323.798 407.250 C 323.508 374.792, 323.409 373.284, 321.215 367.853 C 318.329 360.710, 312.102 353.592, 306.060 350.531 C 290.043 342.414, 269.141 347.014, 260.115 360.641 L 257 365.343 257 340.671 L 257 316 245.667 316 C 239.433 316, 234.033 316.300, 233.667 316.667 M 121.332 348.851 C 106.328 354.036, 98.960 367.514, 103.060 382.277 C 105.550 391.243, 113.237 396.074, 133 401.091 C 139.875 402.837, 147.158 405.099, 149.184 406.119 C 155.983 409.541, 157.702 414.696, 154.044 420.696 C 151.785 424.401, 147.925 425.490, 139.526 424.794 C 132.902 424.244, 127.396 420.417, 125.205 414.840 L 123.697 411 112.329 411 L 100.962 411 101.591 413.750 C 102.741 418.774, 106.660 426.544, 109.914 430.249 C 113.786 434.659, 123.001 439.443, 130.704 441.042 C 133.808 441.687, 140.888 442.046, 146.436 441.841 C 154.953 441.525, 157.402 441.038, 162.154 438.713 C 176.395 431.746, 181.936 417.291, 175.397 404.168 C 171.037 395.420, 165.089 392.054, 145.073 387.012 C 131.741 383.653, 129.733 382.873, 126.250 379.701 C 122.844 376.599, 123.155 370.691, 126.923 366.923 C 129.539 364.307, 130.511 364, 136.173 364.004 C 145.099 364.009, 151.979 368.467, 153.530 375.250 L 154.159 378 165.599 378 L 177.038 378 176.373 375.250 C 173.283 362.482, 164.213 352.724, 151.864 348.881 C 143.794 346.369, 128.558 346.354, 121.332 348.851 M 383 394.500 L 383 441 395 441 L 407 441 407 394.500 L 407 348 395 348 L 383 348 383 394.500" stroke="none" fill="black" fill-rule="evenodd"/>
</svg>